HIERARCHY
ROOT hip
{
	OFFSET 0.000000 0.000000 0.000000 
	CHANNELS 6 Xposition Yposition Zposition Xrotation Zrotation Yrotation
	JOINT abdomen
	{
		OFFSET 0.000000 3.402643 0.000000 
		CHANNELS 3 Xrotation Zrotation Yrotation
		JOINT chest
		{
			OFFSET 0.000000 8.438565 -0.680529 
			CHANNELS 3 Xrotation Zrotation Yrotation
			JOINT neck
			{
				OFFSET 0.000000 10.207942 -0.272212 
				CHANNELS 3 Xrotation Zrotation Yrotation
				JOINT head
				{
					OFFSET 0.000000 3.130431 0.000000 
					CHANNELS 3 Xrotation Zrotation Yrotation
					End Site
					{
						OFFSET 0.000000 3.130435 0.000000 
					}
				}
			}
			JOINT lCollar
			{
				OFFSET 3.470700 6.669187 -0.816635 
				CHANNELS 3 Yrotation Zrotation Xrotation
				JOINT lShldr
				{
					OFFSET 3.198488 0.000000 0.000000 
					CHANNELS 3 Zrotation Yrotation Xrotation
					JOINT lForeArm
					{
						OFFSET 10.139888 0.000000 0.000000 
						CHANNELS 3 Yrotation Zrotation Xrotation
						JOINT lHand
						{
							OFFSET 8.370511 0.000000 0.000000 
							CHANNELS 3 Zrotation Yrotation Xrotation
							End Site
							{
								OFFSET 4.083176 0.000000 0.000000 
							}
						}
					}
				}
			}
			JOINT rCollar
			{
				OFFSET -3.470700 6.669187 -0.816635 
				CHANNELS 3 Yrotation Zrotation Xrotation
				JOINT rShldr
				{
					OFFSET -3.198488 0.000000 0.000000 
					CHANNELS 3 Zrotation Yrotation Xrotation
					JOINT rForeArm
					{
						OFFSET -10.139888 0.000000 0.000000 
						CHANNELS 3 Yrotation Zrotation Xrotation
						JOINT rHand
						{
							OFFSET -8.370511 0.000000 0.000000 
							CHANNELS 3 Zrotation Yrotation Xrotation
							End Site
							{
								OFFSET -4.083176 0.000000 0.000000 
							}
						}
					}
				}
			}
		}
	}
	JOINT lThigh
	{
		OFFSET 5.308129 -1.633274 1.361059 
		CHANNELS 3 Xrotation Zrotation Yrotation
		JOINT lShin
		{
			OFFSET -2.041588 -20.007561 0.000000 
			CHANNELS 3 Xrotation Zrotation Yrotation
			JOINT lFoot
			{
				OFFSET 0.000000 -19.190928 -1.224953 
				CHANNELS 3 Xrotation Yrotation Zrotation
				End Site
				{
					OFFSET 0.000000 -2.449906 4.627600 
				}
			}
		}
	}
	JOINT rThigh
	{
		OFFSET -5.308129 -1.633274 1.361059 
		CHANNELS 3 Xrotation Zrotation Yrotation
		JOINT rShin
		{
			OFFSET 2.041588 -20.007561 0.000000 
			CHANNELS 3 Xrotation Zrotation Yrotation
			JOINT rFoot
			{
				OFFSET 0.000000 -19.190928 -1.224953 
				CHANNELS 3 Xrotation Yrotation Zrotation
				End Site
				{
					OFFSET 0.000000 -2.449906 4.627600 
				}
			}
		}
	}
}
MOTION
Frames: 18
Frame Time: 0.033333
0.340061 22.171545 0.340061 -78.718040 -0.780703 -29.745180 17.607679 4.154756 -17.014042 -22.960766 2.214939 6.646148 -7.630426 5.817062 32.840057 10.524219 0.508720 -0.030344 38.257824 -6.250686 -25.000000 -63.652725 22.081032 52.431667 0.356976 -1.430683 2.402259 46.726299 -10.361354 -90.426575 39.210823 4.651381 -25.000000 66.274872 -3.373497 -7.981557 13.129119 1.790719 2.385561 77.656387 41.529533 114.219666 -3.435862 -7.311799 7.387946 14.439046 -1.574318 -2.349401 18.772518 12.237554 3.934399 -3.447832 -7.433616 -29.885466 15.790586 1.488411 2.419282 25.923471 -3.538933 5.906388 
0.340061 14.159604 0.340061 -84.873413 -1.394966 -14.789026 18.256062 4.353130 -16.962048 -20.302582 1.904335 6.747704 -2.211164 -1.427302 32.095364 10.524219 0.508720 -0.030344 38.021755 -8.523733 -22.443794 -64.602402 11.083244 47.160545 -3.512268 -1.536831 2.412389 46.726299 -10.361354 -90.426575 37.307587 2.396584 -22.475296 68.474525 5.465901 -10.524497 13.129119 1.790719 2.385561 77.656387 41.529533 114.219666 -3.968014 -6.643459 7.450278 13.739436 -1.603644 -2.296360 23.998837 12.101732 2.616882 -2.959542 -7.114772 -29.934830 16.370033 1.469270 2.456676 25.198153 -3.551289 5.887270 
0.340061 6.564120 0.340061 -90.498016 -0.005348 0.000022 18.845053 4.534545 -16.919540 -18.211899 1.658803 6.816790 3.107421 -7.838890 29.978722 10.524219 0.508720 -0.030344 37.298519 -10.475390 -14.334549 -64.549057 1.081849 42.110146 -6.736073 -1.629588 2.406312 46.726299 -10.361354 -90.426575 35.060570 0.239394 -14.528287 70.232086 14.043671 -12.137384 13.129119 1.790719 2.385561 77.656387 41.529533 114.219666 -5.838986 -5.867655 7.705430 14.045372 -1.583780 -2.329950 28.973652 11.844828 1.461161 -3.925774 -6.986878 -30.018175 18.214802 1.405829 2.571952 24.841991 -3.799885 5.412264 
0.340061 -0.353962 0.340061 -90.498016 -0.005348 0.000022 19.327286 4.673866 -16.873861 -16.971399 1.510738 6.843444 8.206702 -12.854670 26.648355 10.524219 0.508720 -0.030344 35.879921 -12.064060 -7.423346 -63.701942 -7.112749 37.080055 -8.969463 -1.690841 2.404158 46.726299 -10.361354 -90.426575 32.374378 -1.687055 -7.838486 71.691589 21.881680 -12.660885 13.129119 1.790719 2.385561 77.656387 41.529533 114.219666 -18.174772 -2.695456 9.215667 22.248631 -1.283687 -2.844902 34.677441 10.753245 0.077379 -10.974377 -7.016506 -30.310057 26.174297 1.093502 3.023450 25.068741 -5.708628 2.748917 
0.340061 0.017998 0.340061 -90.498016 -0.005348 0.000022 19.632042 4.768409 -16.848370 -17.870010 1.619346 6.824834 14.521952 -16.052517 18.941734 10.524219 0.508720 -0.030344 30.589643 -13.512638 -1.083325 -61.505852 -13.272334 29.096975 -9.486041 -1.703915 2.405348 47.111362 -10.571454 -90.925903 25.957939 -3.570937 -1.767147 73.771065 31.340279 -10.398000 13.387216 1.803404 2.383239 77.656387 41.529533 114.219666 -38.159500 3.035968 10.097427 36.506096 -0.603721 -3.617810 40.056339 8.426331 -1.129746 -24.510948 -7.343338 -30.762749 40.653328 0.351541 3.795431 25.907425 -10.535274 -1.104788 
0.340061 0.179042 0.340061 -90.498016 -0.005348 0.000022 19.858398 4.843687 -16.826904 -20.781368 1.962938 6.731269 21.893805 -16.943342 7.086571 10.524219 0.508720 -0.030344 21.491686 -15.713819 4.597784 -57.204670 -17.030413 17.906563 -8.711176 -1.683978 2.403278 47.765331 -10.919394 -91.749535 15.879346 -6.254264 3.532262 78.527863 41.826202 -4.638922 13.805729 1.810725 2.389838 77.656387 41.529533 114.219666 -48.552685 6.747587 9.412339 44.017963 -0.185502 -3.955462 42.438839 6.395744 -1.807816 -38.532230 -8.054016 -31.021589 55.267834 -0.556422 4.316896 27.430653 -16.538158 -3.063425 
0.340061 0.234618 0.340061 -90.498016 -0.005348 0.000022 20.182896 4.937809 -16.800058 -23.909008 2.330101 6.612515 27.248970 -16.168871 -3.443630 10.524219 0.508720 -0.030344 12.990184 -18.354778 8.017005 -52.345131 -17.954681 8.122283 -8.066308 -1.660562 2.406416 47.892326 -10.985630 -91.914772 6.780989 -9.217564 6.537734 85.316666 48.554352 2.369767 13.893927 1.818541 2.381366 77.656387 41.529533 114.219666 -47.106949 7.763191 8.833306 42.965057 -0.233976 -3.897098 42.180008 5.242900 -2.582089 -46.996399 -9.057798 -30.792831 63.676701 -1.122826 4.522338 29.872967 -20.033239 -2.721846 
0.340061 0.278965 0.340061 -90.498016 -0.005348 0.000022 20.762777 5.118752 -16.753885 -25.414776 2.500893 6.546390 27.919722 -15.553483 -7.563870 10.524219 0.508720 -0.030344 9.121738 -19.708918 7.805961 -49.331165 -17.184860 4.448250 -8.969463 -1.690841 2.404158 46.726299 -10.361354 -90.426575 2.921429 -10.542150 6.187811 87.834877 48.060215 4.358641 13.129119 1.790719 2.385561 77.656387 41.529533 114.219666 -43.561367 8.475685 8.337371 40.330730 -0.389980 -3.803553 41.400238 4.197103 -3.495445 -47.808235 -10.416452 -30.146559 62.985088 -1.074079 4.505706 33.665470 -19.182629 -1.621524 
0.340061 0.334532 0.340061 -90.498016 -0.005348 0.000022 21.786484 5.418631 -16.663906 -25.072521 2.463169 6.564365 23.380537 -15.551943 -4.323031 10.524219 0.508720 -0.030344 10.587441 -19.002516 3.729360 -48.740765 -15.924569 7.803933 -12.107153 -1.775288 2.396143 43.971043 -8.704458 -86.872566 5.076887 -9.446995 2.375038 83.883911 40.467155 -0.743142 11.262109 1.744620 2.392689 77.929108 41.614586 114.536118 -38.438141 8.931945 7.904283 36.534973 -0.607755 -3.630120 40.184090 3.309174 -4.530522 -44.325657 -12.157932 -29.342800 56.964424 -0.663744 4.341017 38.503838 -15.727347 -0.410292 
0.340061 0.378879 0.340061 -90.498016 -0.005348 0.000022 23.157059 5.826488 -16.527023 -23.996996 2.339639 6.608360 15.696881 -14.890594 2.805902 10.524219 0.508720 -0.030344 14.782641 -17.423069 -2.905101 -49.461720 -14.213814 14.983062 -16.638483 -1.899635 2.378103 40.361668 -6.143723 -82.131432 10.440639 -7.332123 -3.831570 78.979874 28.437757 -7.609159 8.661610 1.674801 2.403426 78.556389 41.786423 115.282257 -32.219215 9.205764 7.560639 31.995079 -0.831709 -3.410144 38.678898 2.651556 -5.706978 -38.774754 -14.096518 -28.577723 49.332191 -0.165927 4.133457 42.733521 -11.273491 1.109180 
0.340061 0.389967 0.340061 -90.498016 -0.005348 0.000022 24.619061 6.256246 -16.369141 -22.481819 2.157071 6.666589 6.625156 -12.805779 11.678487 10.524219 0.508720 -0.030344 20.527437 -15.987420 -10.966437 -50.788239 -12.058083 24.034792 -21.642399 -2.038801 2.343685 36.609859 -2.953608 -77.047585 17.654846 -5.413011 -11.496753 75.719841 13.567654 -13.989470 5.703202 1.583737 2.399240 79.292137 41.995861 116.145752 -25.447996 9.364813 7.261472 27.110243 -1.070124 -3.132741 36.934402 2.218252 -6.941912 -33.422676 -15.989208 -27.972681 43.764626 0.175939 3.930713 44.696346 -7.128003 2.809191 
0.340061 0.381724 0.340061 -90.498016 -0.005348 0.000022 25.924946 6.636362 -16.221228 -20.791142 1.962937 6.730934 -2.028235 -9.332543 20.216997 10.524219 0.508720 -0.030344 26.557877 -15.295242 -19.198507 -52.044022 -9.536949 33.128441 -26.217144 -2.154212 2.313509 33.291435 0.405408 -72.360680 25.227045 -4.430308 -19.420197 74.788979 -2.001273 -19.520380 2.785836 1.503613 2.394665 79.842323 42.129478 116.791344 -18.622608 9.452854 6.993105 22.297853 -1.270193 -2.854716 35.057915 2.017306 -8.163800 -28.220072 -18.169319 -27.319540 41.882862 0.273448 3.833433 43.163193 -3.120309 5.032598 
0.340061 0.373336 0.340061 -90.498016 -0.005348 0.000022 26.815557 6.889401 -16.125767 -19.188786 1.776883 6.781601 -8.878340 -5.402584 26.671680 10.524219 0.508720 -0.030344 31.435953 -15.322587 -25.000000 -52.670948 -6.919972 40.561646 -29.459925 -2.238967 2.274447 30.796555 3.325508 -68.717102 31.455292 -4.379096 -25.000000 76.007301 -16.057690 -24.237778 0.296717 1.433074 2.393955 79.924370 42.159496 116.895668 -12.260731 9.526547 6.733242 17.966957 -1.439041 -2.583280 33.180977 1.971824 -9.312294 -22.136141 -20.627640 -26.762695 41.492065 0.302789 3.835905 39.165707 1.159795 7.955863 
0.340061 0.323453 0.340061 -90.498016 -0.005348 0.000022 27.034504 6.948782 -16.090792 -17.967693 1.629230 6.822520 -13.042894 -2.484812 29.811003 10.524219 0.508720 -0.030344 33.812805 -15.539682 -25.000000 -52.355469 -4.630274 44.743759 -30.460083 -2.267136 2.268346 29.424608 5.090790 -66.643387 34.729420 -4.633328 -25.000000 78.547295 -26.601864 -27.421518 0.057604 1.429713 2.387216 79.292137 41.995861 116.145752 -6.890612 9.641600 6.512993 14.528667 -1.565063 -2.343286 31.361845 2.025085 -10.324336 -15.995579 -22.593826 -26.660078 40.604530 0.351497 3.793183 34.610718 4.639709 10.962761 
0.340061 0.217845 0.340061 -90.498016 -0.005348 0.000022 26.449850 6.789144 -16.159977 -17.108150 1.520708 6.840432 -14.610939 -1.311200 29.709284 10.524219 0.508720 -0.030344 33.453060 -15.440866 -25.000000 -51.157356 -2.661405 45.445988 -28.820581 -2.225996 2.278574 29.209652 5.385028 -66.296982 34.753620 -4.572319 -25.000000 80.817146 -32.926723 -28.253183 -0.180015 1.425281 2.389810 77.656387 41.529533 114.219666 -3.016782 9.869609 6.330139 12.390542 -1.621139 -2.227481 29.714441 2.110867 -11.178540 -10.674383 -23.214434 -27.081427 37.189972 0.541250 3.630384 31.603531 6.362208 13.249936 
0.340061 0.056947 0.340061 -90.498016 -0.005348 0.000022 25.241829 6.438573 -16.301588 -16.385387 1.441509 6.863649 -14.602389 -1.348855 27.659174 10.524219 0.508720 -0.030344 31.381075 -15.056259 -25.000000 -49.518761 -0.625582 43.988800 -25.189932 -2.130982 2.320580 29.788322 4.607903 -67.191727 32.737877 -4.194550 -25.000000 81.481102 -35.464771 -26.649502 -0.407977 1.421023 2.390662 74.441078 40.472004 110.379570 -1.454853 10.033640 6.170475 12.459476 -1.623402 -2.221532 28.127275 2.200868 -11.636423 -6.485357 -22.223352 -27.912180 30.756140 0.873285 3.312601 30.737095 6.199532 14.431393 
0.340061 -0.131948 0.340061 -90.498016 -0.005348 0.000022 23.620926 5.964800 -16.479633 -15.760352 1.362422 6.872797 -13.508540 -2.173914 24.296051 10.524219 0.508720 -0.030344 28.144741 -14.550690 -25.000000 -47.698654 1.599751 41.134872 -20.210388 -1.994646 2.363788 30.937843 3.136734 -68.930969 29.334286 -3.670194 -25.000000 80.676987 -35.047749 -22.935112 2.915581 1.513894 2.401105 69.848061 38.553940 104.845779 -2.031119 10.025740 6.020882 14.715446 -1.554953 -2.371321 26.436283 2.362040 -11.656689 -2.932346 -20.198038 -28.822319 22.642073 1.234686 2.855891 30.839325 5.008188 14.722385 
0.340061 -0.337330 0.340061 -90.498016 -0.005348 0.000022 21.796581 5.427742 -16.660404 -15.193935 1.293162 6.889604 -11.834629 -3.323680 20.258463 10.524219 0.508720 -0.030344 24.323566 -14.109063 -25.000000 -45.946735 4.074206 37.596802 -14.571850 -1.845413 2.392410 32.428757 1.370682 -71.127632 25.232882 -3.202423 -25.000000 79.341370 -32.946754 -18.256159 7.320424 1.637397 2.397112 64.843544 35.840298 98.686783 -3.798450 9.909993 5.903944 18.192850 -1.429001 -2.593385 24.698080 2.577425 -11.433006 0.171975 -17.570726 -29.694754 13.587764 1.556924 2.274135 31.490803 3.406272 14.315789 
